<?xml version="1.0" encoding="UTF-8"?>
<svg xmlns="http://www.w3.org/2000/svg" xmlns:xlink="http://www.w3.org/1999/xlink" width="50px" height="50px" viewBox="0 0 50 50" version="1.1">
<g id="surface1">
<path style=" stroke:white;fill-rule:nonzero;fill:rgb(100%,100%,100%);fill-opacity:1;" d="M 29.503906 7.21875 C 28.597656 5.789062 28.886719 4.84375 29.386719 3.871094 C 29.835938 3 30.019531 1.484375 28.433594 0.292969 C 29.894531 -0.246094 32.199219 0.707031 32.238281 2.445312 C 31.390625 3.613281 29.078125 4.078125 29.503906 7.21875 Z M 39.992188 39.359375 C 39.28125 41.65625 39.605469 42.878906 36.519531 47.652344 C 41.972656 43.972656 44.546875 39.21875 45.394531 33.824219 C 45.925781 36.074219 45.976562 38.113281 45.769531 40.042969 C 50.285156 34.09375 53.382812 22.101562 42.96875 10.042969 C 42.550781 15.371094 37.398438 19.570312 31.453125 17.921875 C 41.644531 16.800781 42.296875 3.839844 33.542969 0.847656 C 33.714844 4.453125 28.792969 3.273438 30.242188 8.097656 C 25.230469 5.261719 14.28125 4.679688 9.929688 8.980469 C 7.6875 11.195312 6.15625 13.03125 3.351562 13.152344 C 1.035156 13.25 -2.019531 17.007812 1.957031 18.929688 C 2.335938 20.53125 3.671875 21.441406 4.445312 21.597656 C 4.253906 24.449219 4.859375 22.996094 5.75 21.753906 C 5.449219 25.359375 5.941406 24.058594 7.335938 22.207031 C 19.117188 19.824219 25.628906 29.433594 25.699219 35.335938 C 25.648438 34.265625 23.9375 33.019531 23.03125 33.363281 C 22.417969 34.660156 21.75 35.757812 20.929688 36.300781 C 21.015625 35.441406 20.957031 34.582031 20.800781 33.722656 C 20.527344 34.761719 20.015625 35.84375 19.199219 36.972656 C 17.574219 37.0625 15.300781 35.855469 15.964844 33.851562 C 16.894531 31.902344 15.066406 31.5 13.589844 32.054688 C 12.484375 32.476562 11.734375 33.636719 11.632812 33.996094 C 11.261719 35.300781 11.382812 38.207031 13.914062 40.132812 C 13.25 40.253906 12.570312 40.363281 12.105469 40.636719 C 16.40625 43.238281 20.796875 42.359375 23.238281 41.375 C 27.242188 39.769531 30.003906 35.320312 30.433594 31.890625 C 31.542969 36.71875 29.554688 42.078125 25.09375 44.957031 C 26.367188 45.089844 28.863281 44.226562 31.414062 43.320312 C 29.484375 45.746094 27.179688 48.046875 23.40625 49.855469 C 30.84375 49.234375 36.28125 45.5 39.992188 39.359375 "/>
</g>
</svg>
