<svg xmlns="http://www.w3.org/2000/svg" xmlns:xlink="http://www.w3.org/1999/xlink" version="1.1" x="0px" y="0px" viewBox="0 0 512 640" enable-background="new 0 0 512 512" xml:space="preserve"><g><path d="M348.351,424.511l38.256-29.366c10.362-7.502,15.078-18.563,19.64-29.26c0.693-1.628,1.39-3.261,2.108-4.886l0.15-0.34   l10.529-34.945c1.015-2.426,1.529-4.986,1.529-7.616c0-5.282-2.058-10.247-5.793-13.981c-4.61-4.611-11.196-6.648-17.6-5.453   c-6.41,1.195-11.813,5.469-14.452,11.433l-0.12,0.272l-10.28,31.314c-1.238-0.932-2.594-1.725-4.049-2.35   c-5.815-2.499-12.464-2.035-17.87,1.225l-35.874,16.585c-19.165,8.858-31.156,28.203-30.57,49.302l-0.016,13.223h-0.005v68.706   h-75.163v-68.706h-0.007l-0.015-13.223c0.586-21.099-11.405-40.443-30.569-49.302l-35.874-16.585   c-5.408-3.261-12.056-3.725-17.873-1.225c-1.455,0.625-2.81,1.418-4.046,2.35l-10.188-31.031l-0.213-0.555   c-2.639-5.964-8.04-10.238-14.45-11.434c-6.415-1.194-12.991,0.843-17.602,5.453c-3.735,3.736-5.793,8.701-5.793,13.981   c0,2.628,0.515,5.188,1.53,7.616l10.422,34.59l0.258,0.695c0.718,1.623,1.413,3.254,2.106,4.88   c4.561,10.699,9.277,21.763,19.642,29.267l38.256,29.366v63.861H91.672v12h52.684h64.416h75.163h64.416h54.112v-12h-54.112V424.511   z M113.337,385.573l-0.146-0.109c-7.705-5.55-11.585-14.652-15.694-24.291c-0.665-1.561-1.333-3.127-2.019-4.686l-10.413-34.559   l-0.257-0.693c-0.442-1-0.666-2.057-0.666-3.138c0-2.075,0.809-4.026,2.277-5.495c1.839-1.839,4.357-2.62,6.916-2.143   c2.472,0.461,4.487,2.006,5.569,4.257l13.689,41.694c-0.017,0.318-0.03,0.637-0.03,0.953c0,6.76,3.413,12.957,9.134,16.581   l20.894,13.216l6.414-10.142l-20.89-13.214c-2.224-1.408-3.552-3.816-3.552-6.441c0-0.289,0.02-0.588,0.06-0.888l0.024-0.224   c0.014-0.139,0.043-0.277,0.061-0.371c0.493-2.504,2.12-4.516,4.464-5.523c2.34-1.007,4.923-0.803,7.081,0.564l0.334,0.211   l36.559,16.901c14.822,6.853,24.089,21.827,23.607,38.15l-0.003,0.092l0.015,13.39h-39.014L113.337,385.573z M196.771,488.373   h-40.416v-56.706h40.416V488.373z M336.351,488.373h-40.416v-56.706h40.416V488.373z M334.954,419.667h-39.015l0.016-13.298   l-0.003-0.184c-0.481-16.323,8.785-31.298,23.608-38.15l36.559-16.901l0.334-0.211c2.155-1.365,4.735-1.572,7.08-0.564   c2.344,1.007,3.971,3.02,4.456,5.478c0.027,0.146,0.057,0.29,0.07,0.435l0.023,0.206c0.04,0.3,0.06,0.599,0.06,0.888   c0,2.625-1.328,5.033-3.549,6.439l-20.893,13.216l6.414,10.142l20.896-13.218c5.718-3.621,9.132-9.819,9.132-16.579   c0-0.316-0.014-0.635-0.03-0.953l13.688-41.693c1.082-2.252,3.099-3.797,5.57-4.259c2.558-0.479,5.075,0.304,6.915,2.144   c1.469,1.469,2.277,3.42,2.277,5.495c0,1.083-0.224,2.139-0.665,3.138l-0.149,0.338l-10.521,34.914   c-0.687,1.561-1.355,3.128-2.021,4.691c-4.108,9.635-7.988,18.736-15.691,24.285L334.954,419.667z"/><path d="M132.341,313.324l114.021,71.983l114.012-71.983V249.63h-12v57.079l-96.021,60.625V250.729l34.546,19.809l120.999-69.383   l-101.706-56.201l-11.801-6.523c0.1-0.482,0.222-0.923,0.376-1.294c0.595-1.433,2.398-3.358,4.143-5.222   c3.518-3.756,7.895-8.431,7.895-14.832s-4.377-11.075-7.895-14.832c-1.744-1.862-3.548-3.788-4.142-5.22   c-0.658-1.588-0.765-4.337-0.868-6.995c-0.195-5.05-0.438-11.334-4.801-15.695c-4.36-4.36-10.645-4.604-15.693-4.8   c-2.658-0.103-5.408-0.209-6.996-0.868c-1.432-0.594-3.358-2.397-5.221-4.142c-3.756-3.518-8.43-7.895-14.831-7.895   s-11.075,4.377-14.832,7.895c-1.862,1.744-3.788,3.548-5.221,4.142c-1.588,0.659-4.337,0.766-6.995,0.868   c-5.049,0.195-11.333,0.438-15.694,4.8s-4.604,10.645-4.8,15.693c-0.104,2.659-0.21,5.408-0.868,6.996   c-0.595,1.433-2.398,3.359-4.143,5.222c-3.518,3.756-7.895,8.43-7.895,14.831s4.377,11.076,7.895,14.832   c1.744,1.862,3.548,3.788,4.143,5.221c0.154,0.372,0.276,0.813,0.377,1.296l-113.49,62.723l47.509,27.247L132.341,313.324z    M240.353,367.321l-96.012-60.613l0.002-71.426l61.47,35.254l34.54-19.804V367.321z M246.357,233.457l-8.847-5.074l8.841-9.052   l8.843,9.059L246.357,233.457z M383.437,201.348l-96.538,55.356l-28.48-16.33l96.016-55.053L383.437,201.348z M297.1,153.639   l45.044,24.897l-62.556,35.867v-50.258c3.408-0.513,6.824-1.634,9.512-4.321c2.376-2.377,3.525-5.324,4.115-8.332L297.1,153.639z    M197.91,117.082c0-1.659,2.58-4.415,4.653-6.629c2.478-2.645,5.039-5.38,6.468-8.826c1.482-3.573,1.638-7.588,1.774-11.129   c0.115-2.956,0.257-6.636,1.294-7.673c1.038-1.037,4.718-1.18,7.674-1.294c3.541-0.138,7.555-0.293,11.127-1.774   c3.447-1.429,6.183-3.99,8.827-6.468c2.215-2.073,4.97-4.653,6.63-4.653c1.659,0,4.415,2.58,6.629,4.653   c2.645,2.478,5.38,5.039,8.827,6.468c3.572,1.481,7.586,1.637,11.127,1.774c2.957,0.114,6.636,0.257,7.674,1.294   c1.037,1.038,1.18,4.718,1.294,7.674c0.138,3.541,0.293,7.555,1.774,11.128c1.43,3.446,3.99,6.181,6.468,8.826   c2.073,2.214,4.653,4.969,4.653,6.629s-2.58,4.416-4.653,6.63c-2.478,2.645-5.038,5.38-6.469,8.827   c-1.48,3.572-1.636,7.586-1.773,11.126c-0.114,2.957-0.257,6.637-1.294,7.675c-1.038,1.037-4.717,1.18-7.674,1.294   c-3.541,0.138-7.555,0.293-11.127,1.774c-3.447,1.429-6.183,3.99-8.827,6.468c-2.214,2.073-4.97,4.653-6.629,4.653   c-1.66,0-4.415-2.58-6.63-4.653c-2.645-2.478-5.38-5.039-8.826-6.468c-3.573-1.481-7.587-1.638-11.129-1.774   c-2.956-0.114-6.635-0.257-7.672-1.294c-1.038-1.038-1.18-4.717-1.295-7.673c-0.137-3.542-0.292-7.556-1.774-11.129   c-1.429-3.446-3.99-6.182-6.468-8.827C200.49,121.497,197.91,118.742,197.91,117.082z M199.5,151.492   c0.589,3.007,1.738,5.955,4.114,8.332c4.361,4.361,10.645,4.604,15.694,4.801c2.658,0.103,5.407,0.209,6.996,0.868   c1.433,0.594,3.358,2.397,5.221,4.142c3.757,3.518,8.431,7.895,14.832,7.895s11.075-4.377,14.831-7.895   c1.862-1.744,3.789-3.548,5.221-4.142c0.341-0.142,0.743-0.253,1.179-0.35v56.141l-1.642,0.94l-19.593-20.07l-19.595,20.063   l-1.631-0.936v-48.264h-12V214.4l-62.55-35.871L199.5,151.492z M109.291,201.347l28.993-16.023l96.009,55.051l-28.48,16.33   L109.291,201.347z"/><path d="M246.357,149.763c18.02,0,32.68-14.66,32.68-32.681c0-5.088-1.139-9.965-3.385-14.496l-10.752,5.329   c1.418,2.86,2.137,5.944,2.137,9.167c0,11.403-9.277,20.681-20.68,20.681c-11.403,0-20.681-9.277-20.681-20.681   s9.277-20.68,20.681-20.68c4.965,0,9.764,1.785,13.514,5.026l7.848-9.079c-5.931-5.125-13.517-7.947-21.361-7.947   c-18.021,0-32.681,14.66-32.681,32.68C213.677,135.103,228.337,149.763,246.357,149.763z"/><rect x="240.357" y="11.627" width="12" height="37.856"/><rect x="279.476" y="25.012" transform="matrix(0.7071 0.7071 -0.7071 0.7071 114.6706 -188.983)" width="12.001" height="37.856"/><rect x="188.312" y="37.94" transform="matrix(0.7071 0.7071 -0.7071 0.7071 91.7659 -133.6693)" width="37.857" height="11.999"/><rect x="94.864" y="162.869" transform="matrix(0.4828 0.8758 -0.8758 0.4828 203.9956 1.3396)" width="12" height="20.992"/><rect x="143.829" y="115.841" transform="matrix(0.4828 0.8758 -0.8758 0.4828 205.6812 -55.5045)" width="12" height="61.057"/><rect x="420.254" y="339.966" transform="matrix(0.2885 -0.9575 0.9575 0.2885 -24.5879 658.8437)" width="21.512" height="12"/><path d="M415.936,373.181c-4.108,9.639-7.989,18.741-15.693,24.291l-40.279,31.748v35.91h12v-30.09l35.402-27.91   c10.342-7.504,15.053-18.555,19.609-29.243c0.693-1.626,1.389-3.258,2.106-4.88l-10.975-4.854   C417.367,369.824,416.65,371.505,415.936,373.181z"/></g><text x="0" y="527" fill="#000000" font-size="5px" font-weight="bold" font-family="'Helvetica Neue', Helvetica, Arial-Unicode, Arial, Sans-serif">Created by Chanut is Industries</text><text x="0" y="532" fill="#000000" font-size="5px" font-weight="bold" font-family="'Helvetica Neue', Helvetica, Arial-Unicode, Arial, Sans-serif">from the Noun Project</text></svg>