<?xml version="1.0" standalone="no"?>
<!DOCTYPE svg PUBLIC "-//W3C//DTD SVG 20010904//EN"
 "http://www.w3.org/TR/2001/REC-SVG-20010904/DTD/svg10.dtd">
<svg version="1.0" xmlns="http://www.w3.org/2000/svg"
 width="120.000000pt" height="120.000000pt" viewBox="0 0 60.000000 60.000000"
 preserveAspectRatio="xMidYMid meet">

<g transform="translate(0.000000,60.000000) scale(0.100000,-0.100000)"
fill="#000000" stroke="none">
<path d="M180 575 c-11 -21 -11 -29 0 -50 7 -14 17 -25 22 -25 12 0 10 24 -4
38 -9 9 -9 15 0 24 14 14 16 38 4 38 -5 0 -15 -11 -22 -25z"/>
<path d="M250 575 c-11 -21 -11 -29 0 -50 7 -14 17 -25 22 -25 12 0 10 24 -4
38 -9 9 -9 15 0 24 14 14 16 38 4 38 -5 0 -15 -11 -22 -25z"/>
<path d="M320 575 c-11 -21 -11 -29 0 -50 7 -14 17 -25 22 -25 12 0 10 24 -4
38 -9 9 -9 15 0 24 14 14 16 38 4 38 -5 0 -15 -11 -22 -25z"/>
<path d="M107 474 c-4 -4 -7 -90 -7 -191 l0 -183 -39 0 c-47 0 -63 -18 -59
-62 l3 -33 295 0 295 0 3 33 c5 51 -11 62 -89 62 l-69 0 0 30 c0 27 3 30 30
30 53 0 70 29 70 120 0 91 -17 120 -69 120 -27 0 -30 3 -33 38 l-3 37 -161 3
c-88 1 -163 -1 -167 -4z m313 -194 l0 -180 -150 0 -150 0 0 180 0 180 150 0
150 0 0 -180z m88 88 c7 -7 12 -42 12 -88 0 -84 -9 -100 -52 -100 -36 0 -37
18 0 22 27 3 27 4 27 78 0 74 0 75 -27 78 -16 2 -28 8 -28 13 0 13 54 11 68
-3z m-28 -88 c0 -53 -2 -60 -20 -60 -18 0 -20 7 -20 60 0 53 2 60 20 60 18 0
20 -7 20 -60z m98 -232 l3 -28 -280 0 -281 0 0 23 c0 13 3 27 7 30 4 4 128 6
277 5 l271 -3 3 -27z"/>
<path d="M212 398 c-7 -7 -12 -18 -12 -25 0 -6 -8 -17 -17 -23 -14 -8 -15 -12
-5 -17 7 -3 17 -16 22 -29 10 -24 36 -42 46 -31 3 3 -4 15 -15 26 -26 26 -27
55 -1 81 11 11 20 22 20 25 0 10 -26 5 -38 -7z"/>
<path d="M300 406 c0 -3 9 -15 20 -26 26 -26 25 -55 -1 -81 -11 -11 -18 -23
-15 -26 10 -11 36 7 46 31 5 13 15 26 22 29 11 5 11 7 0 15 -8 5 -19 20 -26
33 -10 21 -46 40 -46 25z"/>
<path d="M160 230 c0 -5 7 -10 15 -10 8 0 15 5 15 10 0 6 -7 10 -15 10 -8 0
-15 -4 -15 -10z"/>
<path d="M210 230 c0 -6 35 -10 85 -10 50 0 85 4 85 10 0 6 -35 10 -85 10 -50
0 -85 -4 -85 -10z"/>
<path d="M160 190 c0 -5 7 -10 15 -10 8 0 15 5 15 10 0 6 -7 10 -15 10 -8 0
-15 -4 -15 -10z"/>
<path d="M210 190 c0 -5 11 -10 25 -10 14 0 25 5 25 10 0 6 -11 10 -25 10 -14
0 -25 -4 -25 -10z"/>
<path d="M280 190 c0 -5 11 -10 25 -10 14 0 25 5 25 10 0 6 -11 10 -25 10 -14
0 -25 -4 -25 -10z"/>
<path d="M160 150 c0 -5 7 -10 15 -10 8 0 15 5 15 10 0 6 -7 10 -15 10 -8 0
-15 -4 -15 -10z"/>
<path d="M210 150 c0 -5 23 -10 50 -10 28 0 50 5 50 10 0 6 -22 10 -50 10 -27
0 -50 -4 -50 -10z"/>
</g>
</svg>
