<?xml version="1.0" encoding="UTF-8"?>
<svg xmlns="http://www.w3.org/2000/svg" xmlns:xlink="http://www.w3.org/1999/xlink" width="50px" height="50px" viewBox="0 0 50 50" version="1.1">
<g id="surface1">
<path style=" stroke:none;fill-rule:nonzero;fill:rgb(100%,100%,100%);fill-opacity:1;" d="M 49.359375 22.304688 L 39.507812 5.253906 C 38.652344 3.773438 36.554688 2.558594 34.839844 2.558594 L 15.152344 2.558594 C 13.445312 2.558594 11.335938 3.773438 10.484375 5.253906 L 0.640625 22.304688 C -0.214844 23.785156 -0.214844 26.207031 0.640625 27.6875 L 10.484375 44.746094 C 11.335938 46.226562 13.433594 47.441406 15.152344 47.441406 L 34.847656 47.441406 C 36.554688 47.441406 38.652344 46.226562 39.515625 44.746094 L 49.359375 27.6875 C 50.214844 26.207031 50.214844 23.785156 49.359375 22.304688 Z M 22.867188 11.988281 C 22.867188 10.871094 23.777344 9.960938 24.898438 9.960938 C 26.015625 9.960938 26.925781 10.871094 26.925781 11.988281 L 26.925781 24.117188 C 26.925781 25.234375 26.015625 26.148438 24.898438 26.148438 C 23.777344 26.148438 22.867188 25.234375 22.867188 24.117188 Z M 24.898438 37.882812 C 17.308594 37.882812 11.128906 31.707031 11.128906 24.117188 C 11.140625 19.765625 13.199219 15.675781 16.691406 13.066406 C 17.074219 12.78125 17.558594 12.65625 18.03125 12.726562 C 18.507812 12.796875 18.933594 13.054688 19.21875 13.441406 C 19.507812 13.824219 19.628906 14.308594 19.558594 14.78125 C 19.488281 15.257812 19.234375 15.683594 18.847656 15.96875 C 14.347656 19.3125 13.40625 25.675781 16.75 30.175781 C 20.09375 34.675781 26.457031 35.617188 30.957031 32.273438 C 33.535156 30.363281 35.054688 27.332031 35.054688 24.117188 C 35.046875 20.890625 33.511719 17.859375 30.917969 15.941406 C 30.113281 15.351562 29.945312 14.214844 30.535156 13.410156 C 31.121094 12.605469 32.261719 12.441406 33.0625 13.027344 C 36.585938 15.625 38.652344 19.746094 38.664062 24.117188 C 38.664062 31.714844 32.484375 37.882812 24.898438 37.882812 Z M 24.898438 37.882812 "/>
</g>
</svg>
